# xmcd CD database file
#
# Track frame offsets:
#	150
#	21222
#	35176
#	57004
#	73009
#	91510
#	109361
#	125021
#	139547
#	153601
#	169214
#	187729
#	204647
#	225289
#	242260
#	256982
#	278244
#	297278
#	312293
#	330293
#
# Disc length: 4685 seconds
#
# Revision: 1
# Processed by: cddbd v1.4PL0 Copyright (c) Steve Scherf et al.
# Submitted via: Feurio! 1.66 - http://www.feurio.com
#
DISCID=13124b14
DTITLE=Various Artist - Top of The Pops Winter 2003
DYEAR=2003
DGENRE=Pop
TTITLE0=Sting feat. Vincente Amigo - Send your love
TTITLE1=Lumidee - Never leave you (Uh ohhh, uh ohhh)
TTITLE2=Robbie Williams - Something beautiful
TTITLE3=Eiffel 65 - Una notte e forse mai piu'
TTITLE4=Kosheen - All in my head
TTITLE5=Beyonce' feat. Jay-z - Crazy in love
TTITLE6=DJ Francesco - Salta
TTITLE7=Salif Keita vs Martin Solveig - Madam
TTITLE8=Lene - It's your duty
TTITLE9=Nickelback - Someday
TTITLE10=Texas feat. Kardinal Offishall - Carnival girl
TTITLE11=Simply Red - Fake
TTITLE12=Stereophonics - Maybe tomorrow
TTITLE13=50 Cent feat. Nate Dogg - 21 questions
TTITLE14=Sugar Daddy - Sweet soca music
TTITLE15=Gemelli Diversi - Mary (Strano rmx)
TTITLE16=Eminem - Business
TTITLE17=Eagle Eye Cherry - Skull tattoo
TTITLE18=Megrita - Magnolia
TTITLE19=Collettivo Soleluna - A vida (Roma)
EXTD=a BBC Music Production
EXTT0=
EXTT1=
EXTT2=
EXTT3=
EXTT4=
EXTT5=
EXTT6=
EXTT7=
EXTT8=
EXTT9=
EXTT10=
EXTT11=
EXTT12=
EXTT13=
EXTT14=
EXTT15=
EXTT16=
EXTT17=
EXTT18=
EXTT19=
PLAYORDER=
